<svg xmlns="http://www.w3.org/2000/svg" xmlns:xlink="http://www.w3.org/1999/xlink" version="1.1" x="0px" y="0px" viewBox="0 0 100 125" enable-background="new 0 0 100 100" xml:space="preserve"><path d="M93.2,37.4c-0.1-0.2-0.1-0.4-0.2-0.6l0.1,0.4L93.2,37.4z M92.9,36.3L92.9,36.3C92.9,36.3,92.9,36.4,92.9,36.3L92.9,36.3z   M91.5,33.9l0,0.2c0.2,0.4,0.4,0.7,0.5,1.1l0.1,0.1l0.1,0.2l0.2,0.3l0.1,0.3l0.1,0.2l0.1,0.2l0.1,0.2c0.1,0.1,0.1,0.3,0.2,0.4  l-0.2-0.5l-0.1-0.4l0-0.1l0.1,0.2c-0.2-0.5-0.3-1-0.5-1.4l0,0c-0.3-0.5-0.5-1-0.8-1.5l0,0.1l-0.2-0.2l0.1,0.3l-0.1,0L91.5,33.9z   M32.2,8.7C32.2,8.7,32.2,8.7,32.2,8.7L32.2,8.7L32.2,8.7z M95,47.8c0,2.1-0.2,4.1-0.7,6.1l-0.2,0.7c-0.4,0.8-0.7,1.6-1,2.5L93,57.4  l-0.1,0.2l-0.2,0.3l-0.1,0.3l-0.1,0.1l-0.1,0.5l-0.1,0.3l-0.1,0.5l-0.2,0.3l-0.3,0.9l-0.1,0.4l0.1,0.2l0,0.2l-0.2,0.5l0,0.2  l-0.1,0.3l0,0.4l-0.1,0.7l0.1,0.1l0,0.3c-0.2,0.8-0.5,1.6-0.7,2.4L90.5,67c-0.2,0.3-0.3,0.7-0.5,1l-0.3,0.5  c-0.3,0.2-0.5,0.5-0.8,0.7l-0.6,0.8L88.1,70l-0.4,0.5l-0.2,0.2l-0.2,0.5l-0.1,0.5L87.1,72L87,72.2l0.1,0l-0.3,0.6l-0.2,0.3l0,0.1  l-0.2,0.3l-0.2,0.2c-0.3,0.2-0.6,0.4-0.9,0.6L85,74.6l-0.1,0.3l0.1,0c-0.3,0.4-0.6,0.8-0.8,1.3l-0.2,0.3c-0.2,0.1-0.3,0.3-0.5,0.4  c-0.4,0.3-0.7,0.7-1,1.1c-0.4,0.3-0.8,0.7-1.2,1l-0.4,0.3l-0.5,0.3L80,79.5l-0.1,0.2l-0.2-0.1l-0.2,0.1l-0.3-0.1l-0.3,0.1l-0.1,0  L78.2,80l-0.4,0.1l-0.4,0.2l-0.2,0l0-0.2l-0.1,0l0-0.2L77,80.1l0-0.1l0.2-0.3l0.1-0.4l0.2-0.1l0.2-0.4c0-0.6,0.1-1.1,0.1-1.7  l-0.1-0.4l0-0.4l0.2-0.6l0.1-0.4l0.2-0.9l0.3-0.7l0.1-0.3l-0.1-0.2l-0.1-0.5c0-0.4,0-0.8,0-1.1L78,70.7l0.1-0.5l0.1-0.4l0.2-0.6  l0.4-0.6l0.1-0.3l0.3-0.6l0.2-0.3l0.4-0.5l0.2-0.3l0.2-0.5l0.1-0.4l-0.1-0.2c0-0.3-0.1-0.6-0.1-0.8l0.1-0.2l0.2-0.3  c0-0.4-0.1-0.8-0.1-1.1l-0.2-0.4l0.1-0.1c-0.1-0.2-0.1-0.5-0.1-0.8l-0.4-0.7l-0.5-0.7l-0.3-0.6l-0.3-0.7l0-0.3l0.2-0.2  c0.1-0.4,0.2-0.7,0.4-1.1l-0.1-0.1l0.3-0.9l0.1-0.6L79,55.2l-0.3-0.1l-0.1-0.3l-0.2-0.1l0-0.2l-0.7,0.3l-0.2,0L77.3,55l-0.5,0  l-0.4-0.5L76.2,54l-0.5-0.5c-0.4,0-0.8,0.1-1.1,0.1L74,53.7l-0.6,0.2l-1.1,0.5l-0.4,0.3l-0.7,0.3l-0.7-0.2l-0.3,0l-0.5-0.1l-0.5,0  l-0.9,0.2c-0.4,0.2-0.8,0.4-1.3,0.6l-0.1,0l-0.2,0L65.9,55l-0.7-0.6l-0.7-0.4L64,53.6l-0.2-0.1l-0.6-0.3l-0.4-0.4l-0.1-0.3L62.6,52  l-0.3-0.4L62,51.2l-0.2-0.1L61.6,51l-0.1-0.3l-0.1-0.2l-0.2-0.1l-0.4-0.3l-0.3,0l-0.2-0.2l0-0.1l-0.2-0.2c-0.1-0.2-0.1-0.5-0.2-0.7  l0.1-0.3l-0.3-0.6l-0.4-0.3l0.3-0.2l0.4-0.5l0.2-0.4l-0.1-0.4l0.2-0.4l0.1-0.7L60,44.3l-0.1-0.4l0.1-0.4l-0.2-0.3l-0.4-0.3  c0-0.2,0-0.4,0-0.7l0.3-0.2l0.2-0.4l-0.1-0.2l0.2-0.5l0.4-0.5l0.2-0.1l0.2-0.4l0-0.4L61,39l0.5-0.3l0.4-0.7l0.3-0.3l0.7-0.1l0.5-0.5  l0.3-0.2l0.5-0.6L64,35.4l0.2-0.6l0-0.4l0.4-0.5l0.6-0.3l0.5-0.3l0.3-0.7l0.1-0.4l0.5,0l0.5,0.3l0.6-0.1l0.7,0.1l0.3,0l0.5-0.4  l0.7-0.2l0.3-0.3l0.6-0.2c0.7-0.1,1.3-0.2,2-0.3l0.3,0.1l0.5-0.3l0.6,0l0.3,0.1l0.4-0.1l0.5-0.3l0.4,0.1L76,31l0.4-0.3l0.1,0.1  l-0.2,0.3l0.1,0.3l0.2,0.2l0.1,0.6l-0.3,0.4l0.2,0.4l0.3,0l0.2,0.3l0.2,0.1l0.7,0.2l0.2-0.1l0.5,0.1l0.8,0.2l0.4,0.6l0.5,0.1  l0.8,0.2L82,35l0.2-0.2l0.1-0.3L82,33.9l0-0.3l0.2-0.4l0.3-0.1l0.6,0.1l0.3,0.3l0.2,0l0.2,0.1l0.4,0l0.2,0.2l0.5-0.1  c0.4,0.1,0.7,0.2,1.1,0.4l0.2-0.3l0.1-0.2l0.3-0.1l0.3,0l0.2,0.3l0-0.2l0.3,0.1l0.3,0l0.1-0.2l0-0.2l0,0l0-0.3l-0.1-0.5l0-0.2l0,0  l-0.1-0.6l-0.1-0.5l0,0l-0.3-0.5l-0.1-0.3l-0.2-0.3l0-0.3l-0.1,0.1l-0.3-0.1l0,0.4l-0.4,0.2L85.4,30l-0.4,0l0,0.3l-0.2,0.1l-0.5-0.3  L84,30.2l-0.5-0.6l-0.4-0.3L83,28.8l-0.4-0.3l0.1-0.7l0.5-0.1l-0.1-0.5l0.7,0l0.2-0.5l0.2-0.2l0.5-0.1l0.7,0.4l0.5,0.2l0.2-0.2  l0.2,0l0.1-0.4l-0.1-0.3L86,25.7l-0.3-0.2l-0.2,0l-0.2-0.2l-0.6-0.4l-0.4-0.2l-0.4-0.3l0.1-0.1l-0.1-0.5l-0.3-0.2l0.2-0.3l-0.1-0.1  l-0.1,0.1l-0.2,0.1l0,0.2l-0.2,0.1L83,23.9l0.3,0.4l0.2,0.1l0.2-0.1l0.1,0.2l-0.2,0.2l-0.2,0.4L83.2,25l-0.1-0.3l-0.4-0.1l0-0.1  l0.1-0.2l-0.2-0.1L82.1,24l-0.2-0.2l-0.2,0.1l0.1,0.3l0,0.5l0.1,0.2L81.9,25l-0.1,0l0.3,0.7l0,0.3l0.1,0.5l0.3,0.3l0.2,0.2l0.4,0.2  l0,0.2l-0.4,0.1l0,0.2L82.5,28l-0.3-0.3l-0.1-0.1l-0.2,0l-0.2,0l-0.4,0.2l0.4,0.3l-0.2,0.1c-0.1,0-0.1,0-0.2,0L81,28l0,0.1l0.3,0.4  l0.3,0.3L81.5,29l0.4,0.3l0.3,0.2l0.2,0.4l-0.5-0.1l0.3,0.3L81.9,30l0.4,0.6l-0.3,0l-0.5-0.2l-0.4-0.5l-0.3-0.4  c-0.2-0.2-0.5-0.4-0.7-0.6l-0.1-0.2l-0.1,0L80,28.5l-0.3-0.2L79.4,28l-0.2-0.4l0-0.2l-0.1-0.1l-0.1,0L78.8,27  c-0.3-0.1-0.5-0.2-0.8-0.3l-0.4-0.2l-0.5-0.1L76.5,26l0.1-0.1l-0.3-0.2l-0.1-0.2l-0.3-0.1l0,0.3l-0.2-0.2l-0.1-0.2l0,0l0.1-0.1  l-0.4-0.1l-0.3,0.2l0.2,0.3l0,0.2l0.3,0.3l0.6,0.3l0.5,0.5l0.8,0.5l0.4,0l0.2,0.1l-0.1,0.1c0.3,0.1,0.6,0.2,0.9,0.4l0.5,0.3l0.1,0.1  l0,0.2l-0.4-0.3l-0.4-0.1l0,0.4l0.4,0.2l0.1,0.3l-0.2,0.1l0,0.6L78.5,30c0-0.1-0.1-0.1-0.1-0.2l0-0.4l0-0.1  c-0.2-0.2-0.4-0.4-0.6-0.7l-0.2-0.1l-0.3-0.3L77,28.2l-0.3-0.2l-0.4,0l-0.5-0.3c-0.4-0.2-0.8-0.5-1.1-0.7l-0.4-0.6l-0.3-0.1  l-0.5-0.2l-0.2,0.1L73,26.5l-0.2,0.1L72.4,27l-1.2-0.1l-0.8,0.3l0.1,0.4l0.2,0.4l-0.4,0.5l-0.7,0.2l0,0.2l-0.3,0.4l-0.1,0.5l0.4,0.4  l-0.3,0.3l0,0.4l-0.5,0.2l-0.3,0.5c-0.5,0-1,0-1.5,0.1l-0.4,0.3L66.5,32l-0.3,0l-0.3-0.2l-0.3-0.4l-0.6-0.1l-0.2,0.2l-0.4-0.1  L64,31.5l0-0.5l-0.1-0.4l-0.3,0l-0.2-0.2l0-0.4l0.2-0.2l0-0.3l0.1-0.4l-0.1-0.3l-0.2-0.2l-0.1-0.2l-0.1-0.5l-0.3-0.3l0.8-0.5  l0.8,0.1l0.8,0l0.7,0.1l0.5-0.1l1,0l0.2-0.4l-0.3-1.2l-0.8-0.6L66,24.5l-1-0.2l-0.2-0.4l0.7-0.2l1,0.1l-0.4-0.7l0.6,0.2l1.1-0.5  l0-0.5c0.3-0.1,0.5-0.2,0.8-0.3l0.2-0.2l0-0.9l0.5-0.3l0.4,0l0-0.1l0.4-0.1l0.2,0.1l0.2-0.3l-0.2-0.2L70.1,20l-0.4-0.3l-0.3-0.5  l0-0.1l0-0.2l0.4-0.1l0.1-0.2l0.2-0.2l0.2,0.3l0,0.2l0.1,0.1l0.3,0.1l0,0.2l-0.2,0l-0.1,0.4l0.3,0.3l0.1,0.2l0.5,0.1l0.1,0.2  l0.4-0.1l0.1-0.2l0.6,0.2l0.3,0.2l0.2-0.2c0.3-0.2,0.5-0.4,0.8-0.5l0.4,0.1l0.1,0.1l0.4,0l-0.1-0.2l0.4-0.2L74.7,19l-0.3-0.4  l-0.1-0.3l0.2-0.2l0.6,0.4l0.2,0c-0.2-0.2-0.3-0.5-0.5-0.7l-0.1,0.1l-0.4-0.2l-0.3-0.3l0.3-0.2l0.3-0.1l0.4,0l0.3-0.1l0-0.3  l-0.5-0.2l-0.5,0.1l-0.3,0.2l-0.4,0.2l-0.4-0.3l-0.4-0.1l-0.4-0.5l-0.6-0.4l-0.1-0.3l0-0.3l0.1-0.6l0.1-0.1l-0.2-0.2L71.2,14  l-0.3,0.2l0,0.3l0.3,0.3l-0.1,0.4l-0.2,0.5l0.3,0.7l0.5,0.3l0.6,0.2l0.1,0.6l-0.3,0.2l0.5,0.9l0.1,0.5l-0.5,0l0.1,0.4l-0.5,0.1  l-0.5-0.5c-0.5-0.4-1.1-0.8-1.6-1.3l-0.5-0.3l-0.4,0.7l-0.5,0.2l-0.8-0.2l-0.5-0.5l-0.9-1.1l0.2-0.3l0.8-0.5l0.4-0.5l0.1-0.7l0-0.9  l0.2-0.4l0.2-0.6l0.4-0.2l0.4,0l-0.1-0.4l0.4,0l0.3-0.1l1,0.2L70.5,12l0.6,0.2l0-0.2l0.6,0.2l0.6,0l1.2,0.3l0.4,0.2l0.4,0.3l0.1,0.3  l-0.1,0.2c-0.4-0.1-0.9-0.1-1.2-0.2L73,13.4l0.7,0.3l0.8,0.7l0.4,0.1l0.3,0.1L75,14.3l-0.4-0.2l-0.1-0.2l0.8,0.2l0-0.1l-0.5-0.3  l-0.2-0.5l0.2,0l0.3,0.1L74.8,13l-0.4-0.2l-0.3-0.3l-0.5-0.2l0.5,0l0.4,0.2l-0.1,0.1l0.3,0.2l0.3,0.1l0-0.1l-0.4-0.3l-0.1-0.2  C62.3,4.3,46.2,2.8,32.6,8.6l0,0l0,0.2l-0.2,0.2l-0.2,0.1L32.1,9l0-0.1l-0.1,0c-1.2,0.5-2.4,1.1-3.6,1.8l-0.1,0.2  c-0.3,0.2-0.6,0.4-0.9,0.7l-0.1,0.2l-0.1,0.2l-0.3,0.2l-0.3,0l-0.1,0.2l-0.3,0.1l-0.1-0.1l0-0.2L26,12l-0.1,0  c-0.1,0.1-0.2,0.1-0.2,0.2l0.1,0l0.1,0l-0.1,0.1l-0.2,0.3l0.2,0l0,0.2l0.3,0l0.2,0.1l0.3-0.3l0.2,0l0.1,0.2l-0.5,0.4l0.6-0.3l0.1,0  l0.6-0.4l0.1-0.3l0-0.2l0.6-0.4l0.6-0.2l0.1,0.1l-0.1,0.2l-0.4,0.5l-0.4,0.2l0.3,0.1l-0.5,0.4l0.7-0.3l-0.1,0.3l-0.5,0.3l-0.1,0.3  l0.6-0.3l0.6-0.3l0.6-0.5l0.3,0.1l0.3,0.1l0.1,0.2l-0.2,0.2l-0.5,0.2l-0.1,0.3l-0.3,0.2L28.9,14l-0.5,0l-0.1-0.2L28,14l-0.7,0.3  l-0.3,0.2l-0.6,0.3l-0.4,0L25.6,15l-0.3,0.3l-0.3,0l-0.7,0.3l-0.8,0.5l-0.5,0.4l-0.6,0.6l0.3,0.1l-0.3,0.5L22,18.1l0.5,0l0.3,0.3  l0.1,0.2l0,0.3l0.3,0.2l0.2,0.3l0.5,0.1l0.3,0.1L23.9,20l-0.3,0.6l-0.2,0.7l0.2,0.6l0.4-0.2l0.6-0.6l0.4-0.9L25,19.9l0.8-0.2  l0.7-0.3l0.5-0.4l0.2-0.4l0.1-0.5l-0.1-0.4l0.8-0.5l0.2-0.5l0.5-0.8l0.3-0.1l0.5,0.2l0.3,0.1l0.4-0.1l0.2,0.2l0.2,0.3l0,0.2l0.7,0.1  L31,17.3L30.7,18l0.3,0.1l0.1,0.3l0.8-0.3l0.8-0.5l0.4-0.2l0.1,0.5c0.1,0.4,0.2,0.9,0.4,1.4l-0.4,0.3l0.5,0.3l0.3,0.3l0.7,0.2  l0.2,0.2l0,0.5l0.4,0.1l0.1,0.2L35.2,22c-0.3,0.1-0.6,0.3-0.9,0.4l-0.9,0.2L32.5,23L31.6,23l-1-0.2l-0.7,0l-0.5,0l-0.6,0.4l-0.7,0.2  c-0.6,0.4-1.2,0.9-1.9,1.3l0.5-0.1l1.1-0.7l1.3-0.4l0.8,0l0.3,0.3l-0.7,0.4l-0.1,0.7l0,0.5l0.6,0.3l0.9,0l0.8-0.7l-0.1,0.4l0.3,0.2  L30.8,26l-1.3,0.3l-0.6,0.2l-0.8,0.4l-0.4-0.1l0.2-0.5l1.1-0.5l-0.8,0l-0.6,0l0,0.2l-0.7,0.3c-0.4,0.1-0.8,0.2-1.2,0.3  c-0.2,0.2-0.4,0.3-0.6,0.5L25,27.5l0,0.3l0.2,0l0-0.2l0.1,0.2L25.2,28l-0.4,0.1l-0.2,0l-0.4,0.1c-0.2,0-0.4,0-0.5,0l-0.5,0.2  l0.8-0.1l0.1,0.1l-0.8,0.1l-0.3,0l0-0.1l-0.2,0.2l0.1,0l-0.3,0.5l-0.6,0.5l0-0.2l-0.1,0l-0.1-0.2l0,0.4l0.1,0.1l-0.1,0.2  c-0.3,0.2-0.5,0.5-0.7,0.7l0,0l0.3-0.4l-0.2-0.3l0.2-0.5l-0.2,0.3L21.1,30l-0.3-0.1l0.2,0.2l-0.2,0.6l0.1,0.1l0,0.2l-0.2,0.7  l-0.5,0.5l-0.6,0.2l-0.5,0.4l-0.3,0L18.7,33l-0.1,0.2l-0.7,0.4l-0.4,0.3l-0.4,0.4l-0.2,0.5l-0.1,0.5l0,0.6l0.1,0.5l-0.1,0.3l0,0.8  c-0.1,0.3-0.1,0.5-0.2,0.8l-0.2,0.4l-0.2,0.1L16,38.7l0-0.3l-0.1-0.2c-0.1-0.4-0.1-0.8-0.2-1.2l0-0.3l0.2-0.5l0-0.4l-0.2-0.6  l-0.1-0.1L15,35.3l-0.1,0L14.9,35l-0.2-0.2l-0.5,0l-0.3-0.1l-0.3,0l-0.2,0.1l0,0.2l-0.1,0.3l0,0.1l-0.1,0.1L13,35.3l-0.2,0.1  l-0.3-0.1L12.4,35l-0.3,0l-0.2-0.2l-0.2,0l-0.3,0.1l-0.5,0.5l-0.4,0.2L10.2,36L10,36.3c-0.1,0.3-0.2,0.5-0.2,0.8l0,0.3l-0.3,0.6  l-0.2,0.5c-0.1,0.4-0.2,0.9-0.4,1.3l0,0.4l0,0.4l-0.1,0.6l0.1,0.6l0,0.4l0.1,0.4l0.3,0.3l0.1,0.3L9.6,43l0.3,0  c0.2-0.1,0.4-0.1,0.6-0.2l0.3-0.3l0.2-0.4l0.2-0.6l0.1-0.2l0.3-0.2L12,41l0.4,0.1l0.3,0l0.1,0.2l-0.1,0.4L12.3,42l-0.2,0.4l0.1,0.1  c-0.1,0.3-0.2,0.6-0.3,0.9l-0.1-0.2l-0.1,0l0,0.1l0.1,0l0,0.2l-0.1,0.3l0,0.1l-0.1,0.3l0,0.1l-0.1,0.4l-0.1,0.2l-0.1,0l-0.1,0.2  l0.1,0.2l0.1-0.1c0,0.1,0.1,0.1,0.2,0.1l0.1-0.1l0.1,0l0,0.1l0.1,0l0.2,0.1l0.2,0l0.2-0.1l0.1-0.1l0.1,0.1l0.1,0.1l0.1,0l0.1-0.1  l0.2,0.1l0.1,0l0.1,0.2l0.1,0.2l0.2,0.1l0.1,0.2l0,0.1l0,0.2l0,0.3l-0.1,0.2l-0.1,0.3l0,0.3l0,0.2l0,0.3l-0.1,0.1l-0.1,0.3l0,0.2  l-0.1,0.2l0,0.2l0.1,0.1l0.1,0.4c0.2,0.3,0.4,0.7,0.6,1l0,0.2l0.2,0.1l0-0.1l0.1,0.2l0.3,0l0.2-0.2l0.3-0.1l0.2-0.2l0.3,0.1l0,0.1  l0.3,0.1l0.2,0.2l0.2,0.2l0.2,0.2l0.3,0l0.4-0.5l0.2-0.1l0-0.3l0.1-0.6l0.3-0.3l0.4,0l0.1-0.2l0.4,0.1c0.2-0.2,0.5-0.4,0.7-0.5  l0.3-0.3l0.2,0.1l0.1,0.2l-0.1,0.3l0,0.2l-0.4,0.1l0.2,0.4l0,0.4l-0.3,0.4l0.2,0.6l0.3,0l0.1-0.6l-0.2-0.3l0-0.6l0.8-0.3l-0.1-0.4  l0.2-0.2l0.2,0.6l0.4,0l0.4,0.5l0,0.3l0.6,0l0.7,0l0.4,0.4l0.5,0.1l0.4-0.2l0-0.2c0.5,0,1.1,0,1.6,0l-0.6,0.2l0.2,0.4l0.5,0.1  l0.5,0.4l0.1,0.6l0.4,0c0.2,0.2,0.5,0.3,0.7,0.5l0.4,0.5l0,0.4l0.3,0c0.2,0.2,0.4,0.5,0.6,0.7l0.8,0.2l0.1-0.1l0.6,0l0.8,0.2  c0.3,0.1,0.5,0.2,0.8,0.3l0.8,0.7l0.1,0.3l0.2,0l0.2,0.4l0.4,1.3l0.4,0.1l0,0.5l-0.5,0.6l0.2,0.2l1.3,0.2l0.1,0.7l0.5-0.5  c0.7,0.2,1.5,0.5,2.2,0.8l0.4,0.4l-0.1,0.4l0.9-0.2l1.5,0.4l1.1,0l1.1,0.6l1,0.8l0.6,0.2l0.7,0l0.3,0.2c0.1,0.5,0.3,0.9,0.4,1.3  l-0.3,1.2L45.3,66l-1,1l-0.4,0.8l-0.5,0.6l-0.2,0L43,68.8l0.1,1.3c-0.1,0.5-0.1,1-0.2,1.4l-0.2,0.3l0,0.9l-0.6,0.8l0,0.6l-0.5,0.3  l-0.1,0.4c-0.2,0-0.5,0-0.7,0l-1,0.2l-0.4,0.3l-0.7,0.2l-0.7,0.5l-0.4,0.6l0,0.4l0.2,0.3l0,0.6L37.6,78l-0.4,0.3l-0.4,1l-0.4,0.4  L36.1,80L36,80.5l-0.3,0.3l-0.1,0.3l-0.5,0.3l-0.4-0.1l-0.3,0l-0.6-0.2l-0.4,0l-0.4-0.3L33,81l0.9,0.5l0.1,0.4l0.4,0.2l0.1,0.3  L34.2,83l-0.6,0.2l-1,0.1l-0.6-0.1l0.3,0.3l0.1,0.4l0.2,0.2l-0.2,0.2l-0.4,0l-0.6-0.2l-0.1,0.1l0.4,0.5l0.4,0.2l0.2-0.1l0.3,0.2  l-0.3,0.1l-0.2,0.3l0.2,0.5l0.1,0.2L32,86l-0.2,0.2l0.1,0.3l0.6,0.3l0.5,0.1l0.2,0.4L33,87.6l0.2,0.5l-0.2,0.1l0,0.2l0.5,0.4  l0.5,0.2l-0.2,0l-0.3,0l-0.1,0.1l-0.2,0.1l0.3,0.3l-0.1,0l-0.5-0.1c-0.4-0.2-0.9-0.4-1.3-0.5l-0.4-0.3L31,88.4l-0.4-0.3l-0.7-0.7  L29.6,87l0.1-0.3L29,86.5l0-0.4l-0.5-0.7l0.6,0.2l-0.5-0.9l-0.4-0.1l0.3,0.6L28.2,85c-0.3-0.5-0.6-1-0.9-1.6l0-0.3l-0.5-0.5  l-0.4-0.6l0.2,0l-0.2-0.8l-0.2-0.8l-0.2-0.8l-0.5-0.8l-0.1-0.5l-0.4-0.7l0-0.7l-0.4-1.1c-0.2-0.9-0.4-1.8-0.7-2.6  c-0.2-0.7-0.5-1.3-0.8-2l-0.7-0.4l-0.1-0.3l-1.3-0.7l-1.2-0.8l-0.5-0.4l-0.4-0.6l0-0.2c-0.9-1.2-1.6-2.4-2.3-3.7l-0.3-0.3l-0.3-0.5  l-0.5-0.5l-0.4-0.3l0.1-0.3L15,61.2l0.1-0.5l0.3-0.4l0.2-0.5l-0.2-0.3l-0.2,0.3l-0.3-0.4l0.1-0.2l-0.2-0.7l0.2-0.1l0-0.5l0.2-0.5  l-0.1-0.3l0.3-0.1l0.3-0.3l-0.1-0.2l0.2,0l0-0.4l0.1-0.3l0.3,0c0.1-0.3,0.3-0.6,0.4-0.8l-0.2-0.2l0.1-0.4l-0.1-0.7l0.1-0.2l-0.1-0.7  l-0.2-0.4l-0.2-0.2l-0.1-0.4l0.1-0.2l-0.1-0.1l-0.1-0.3l-0.3-0.2l-0.2,0l-0.1,0.3l-0.2,0.2l-0.1,0l-0.1,0.2L15,52l-0.1,0.1l-0.1,0.1  l-0.2,0l-0.1-0.5l-0.1,0.1l-0.2-0.1l-0.1-0.3l-0.2-0.1l-0.1-0.1c-0.1,0-0.1,0-0.2,0l0,0.2l-0.1-0.1l-0.3-0.2l-0.1-0.2l0.1-0.1l0-0.2  l-0.1-0.2l-0.2-0.2l-0.2-0.1l0-0.2l-0.1-0.2l0,0.2l-0.1,0.2L12.4,50l-0.1-0.1l-0.1-0.2l0-0.2l0.1-0.2l-0.1-0.1l0.1-0.1  c-0.1-0.2-0.2-0.4-0.3-0.6l-0.1-0.3l-0.2-0.3l-0.2-0.4l0.1-0.1l0.1,0.1l0-0.1l-0.1-0.2l-0.1-0.1l-0.1,0.2l-0.3,0L11,47.1L10.8,47  l-0.2-0.1l-0.1-0.2l-0.2-0.2l-0.2,0l-0.2-0.2L9.7,46l-0.3-0.9l-0.2-0.3L9,44.6l-0.2,0l-0.3,0.2l-0.2,0l-0.2-0.2l-0.2-0.2L7.7,44  l-0.2-0.2l-0.2-0.4l-0.1-0.4l0-0.2L7,42.8l-0.2-0.3l0-0.4l-0.1-0.5l0-0.5l0-0.4l0.1-0.1l0-0.2l0.1-0.2l0.1-0.3l0-0.3L7,39.4  c0.1-0.6,0.1-1.2,0.1-1.8l0.1-0.5l0-0.3l0-0.2l0.2-0.4l0-0.2l0-0.1c-0.2,0.7-0.4,1.4-0.6,2.1c0,0.1,0,0.2,0,0.4l0,0.1l-0.1,0.2  c-4.7,18,2.5,37.4,17.6,48.1c5.1,3.6,11,6.1,17.1,7.4c-0.1,0-0.2-0.1-0.4-0.1L40.6,94l-0.1-0.1l-0.1-0.1l-0.1-0.1  c-0.1-0.1-0.3-0.1-0.4-0.2l-0.1-0.1c0,0,0-0.1,0-0.1l0-0.1l0.1-0.1l-0.1-0.1l0-0.1l0.1-0.1l0.2,0l0.1-0.1l0.1,0l0.2,0l0.1-0.1  l0.1-0.1l0.2,0l0.3,0.1l0,0.1l-0.2,0.1l-0.1,0l-0.3,0l-0.2,0c-0.1,0-0.1,0.1-0.2,0.1l0,0.1l0.1,0.1l0.2,0.1l0.2,0.1l-0.1,0l-0.2,0  l0,0.1l0,0.1l0,0.1l0.1,0.1l0.2,0.1l0.2,0.1c0.2,0,0.4,0.1,0.6,0.1c0.4,0.1,0.7,0.2,1.1,0.4l0.4,0.2l0,0c3.2,0.5,6.5,0.6,9.8,0.4  l0,0l-0.2,0l0.1-0.1l0.2,0c0.4,0,0.7-0.1,1.1-0.2l0.2-0.1l0.2-0.1l0.3,0l0,0.1l0.3,0l0.1-0.1l0.2-0.1l0.2,0l0,0.1l0.3,0  c0.2,0,0.4-0.1,0.7-0.1l0.2,0l0,0.1c0.7-0.2,1.4-0.2,2.1-0.3l0.3-0.1l0,0l0.3,0l0,0c12.2-2.6,22.5-10.2,28.8-20.5l-0.3,0.3  c0-0.1,0-0.2,0-0.3l0.1-0.3l0.3-0.6c0.1-0.3,0.3-0.6,0.4-0.9l0.3-0.5l0.1-0.1l0.1-0.2l0.3-0.5l0.2-0.4c0.1-0.4,0.3-0.9,0.5-1.3  l0.2-0.4l0.2-0.4l0.1-0.1l0.2-0.2l0.1-0.1l0.1,0c0.2-0.3,0.4-0.6,0.5-0.9l0.2-0.4l0.1-0.3l0,0.1C94.4,60.1,95.3,53.9,95,47.8z   M77.5,30c0.3-0.1,0.6-0.1,0.8-0.2l0,0.5l0.2,0.2l0,0.3l-0.5-0.2l-0.3,0L77,30.3L76.9,30L77.5,30z M62.5,18.4l0.4,0l0.6-0.1  l-0.3,0.6l0.5-0.1l0.6,0l0.1,0.4l-0.2,0.5l0.6,0l0.8,0.7l0.4,0.1l0.6,0.6l0.2,0.2l0.7,0.1l0.1,0.4l-0.2,0.2l0.3,0.3l-0.4,0.3l-0.7,0  l-0.9,0.2l-0.3-0.1L65.1,23l-0.5,0l-0.3,0.2l-0.3-0.1l0.6-0.6l0.5-0.1L64,22.2L63.8,22l0.5-0.2l-0.4-0.3l0-0.4l0.8,0l-0.1-0.3  l-0.5-0.3l-0.7-0.1l-0.2-0.1l0.1-0.3l-0.2-0.1l-0.2,0.3l-0.2-0.5l-0.4-0.3l0-0.6L62.5,18.4z M61.6,20.6l0.3-0.3l0.4,0l0.7,0.3  L62.9,21l0.2,0.4l-0.2,0.5L62,22.3l-0.8-0.1l0.3-0.6L61,21L61.6,20.6z M28.2,15.4l-0.4-0.2l0-0.2l-0.5,0.2l-0.7,0.2l0.2-0.3l-0.4,0  L27,15c0.3-0.3,0.6-0.5,1-0.8l0.2,0.1l-0.2,0.2l0.2-0.1l0,0.1l0.2,0.2l0.2,0.2l-0.2,0.2l0.3,0l0.1,0.2L28.2,15.4z M18.1,42.8  l-0.4-0.1l-0.8,0l0.4-0.4l-0.2-0.2l-0.3-0.1l-0.1-0.2l0-0.4l-0.3,0l-0.4-0.2L15.8,41l-0.6-0.2L15,40.7l0.2-0.2l-0.5-0.1l-0.4,0.3  l-0.2,0l-0.1,0.2L13.8,41l-0.2-0.1l0.3-0.2l0.2-0.3l0.2-0.1l0.3-0.1l0.4,0l0.1-0.1l0.4,0.1l0.4,0l0.4,0.3l0.1,0.3l0.5,0  c0.3,0.3,0.5,0.7,0.8,1l0.2,0l0.3,0.2l-0.1,0.2l0.4,0.1l0.4,0.3l-0.1,0.2l-0.4,0.1L18.1,42.8z M21.9,44.4l-0.3-0.2l-0.3,0l-0.2,0  l-0.1,0.1l-0.2,0l-0.1-0.2l-0.2,0.1l-0.3,0.5l-0.1-0.1l0-0.2l-0.4-0.2l-0.3,0l-0.3-0.1l-0.3,0.1L18.6,44l0.1-0.2  c0.3,0.1,0.6,0.2,0.9,0.2l0.2-0.2l-0.2-0.3l0-0.3l-0.3-0.1l0.2-0.2l0.3,0.1l0.5,0.2l0.1-0.1l0.5,0l0.3,0.2l0.2,0l0.1,0.3l0.3,0  l0,0.2l0.3,0l0.3,0.3L21.9,44.4z M35.6,90.1L35.2,90l0,0.1l-0.2,0.1l-0.4-0.1L34.4,90L34,89.9c-0.4-0.1-0.8-0.3-1.2-0.4l-0.9-0.5  l0.4,0.1l0.7,0.3l0.6,0.2l0-0.2l-0.2-0.2l0.2-0.1l0.3,0.1c0.3,0.1,0.5,0.3,0.8,0.5l0.7,0.2l0.6,0.1l0,0.2L35.6,90.1z M33.4,8.9  l0.2-0.1l0.3-0.1l-0.3,0l0.1-0.1l0.2-0.2c0.2-0.1,0.4-0.1,0.6-0.2l0.2,0l0.1-0.1l0.3,0L35,8.4l0.1,0.1l0.2,0.1l-0.2,0.2l0,0.1  L34.7,9l-0.8,0.2l-0.3,0l-0.3-0.1L33.4,8.9z M32.5,9.1l0.2-0.1l0.3-0.1l0.1,0l0,0L33,9l-0.3,0.1L32.5,9.1L32.5,9.1z M31.7,9.7l0-0.1  l0.3-0.1l0.3,0.1l0,0.1l0.3,0l0,0.1l-0.3,0.1l0.1,0.1l0,0.1c0.2,0,0.3,0.1,0.5,0.1l0.4,0l0.5,0l0.3,0.1l0.1,0.2L34,10.6l-0.3,0.1v0  l-0.5,0L33,10.7l-0.7,0l-0.4,0l-0.2-0.1l-0.3-0.2l0.3-0.2l0.3-0.2L32,9.8L31.7,9.7z M30.4,9.8l0.5-0.3l0.1,0l0.4-0.1l0.1,0.1l0.1,0  l-0.2,0.2l-0.3,0.2l-0.5,0.2l-0.3,0l0-0.1l0.4-0.2L30.4,9.8z M28.8,11.4l-0.5,0.1l-0.1-0.1l0.1-0.2l0.2-0.4l0.2-0.1l0.2,0.1l0.3-0.3  l0.4-0.1l0,0.1l0.3,0l-0.1,0.1l-0.4,0.2l0,0.2L28.8,11.4z M29.4,11.3l-0.2,0l0.4-0.4l0.3-0.2l0.3-0.1l0.3-0.1l0.3,0.1l0.2,0.1  L30.3,11l-0.3,0L29.4,11.3z M35.6,25.3l-0.3,0l-0.3-0.1l0.3-0.5l-0.1-0.1l-0.8,0.5l-0.3,0l0.5-0.3l-0.5-0.2l-0.6,0l-1-0.1l0-0.2  l0.4-0.2L32.5,24l0.6-0.3l0.9-0.9l0.4-0.3l0.5-0.2l0.2,0c-0.4,0.3-0.7,0.7-1.1,1l0.4-0.2l0.3,0.1l-0.3,0.2l0.4,0.2l0.3-0.1l0.5,0.2  l-0.3,0.4l0.4-0.1l0,0.3l0.1,0.4L35.6,25.3z M35.9,14.6L35.9,14.6l-1,0.5l-0.3-0.2l-0.2-0.5l-0.5,0l-0.3,0.3l0.2,0.3l0.4,0.2  l0.1,0.1L34,15.9l-0.4,0.3L33.3,16l-0.7-0.4l0.2,0.4l0.2,0.3L33,16.5L32,16.3l-0.6-0.3l-0.3-0.3l0.2-0.1c-0.2-0.2-0.4-0.4-0.6-0.5  l-0.1,0.1l-1,0L29.5,15l0.5-0.3l0.6,0l0.7,0l0-0.2l0.3-0.2l0.8-0.4l0.1-0.2l0-0.2l-0.3-0.2l-0.5-0.2l0.3-0.1l0-0.3l-0.2,0l-0.1-0.2  l-0.3,0.1l-0.6,0l-0.8-0.2l-0.4-0.2l-0.3-0.1l0-0.2l0.5-0.2l-0.3,0l0.5-0.4l0.7-0.3l0.4-0.1l0.7,0l-0.5,0.2l-0.2,0.3l0.6-0.3  l0.8-0.1l-0.1,0.4l-0.4,0.3l0.7-0.1l0.4-0.1l0.4,0.3l0.2,0.2l-0.2,0.2l0.6-0.1l0,0.3l0.6,0.2l0.1,0.2l0,0.4l-0.8,0.2l0.6,0.3  l0.5,0.1l0.2,0.4l0.6,0.1L35.9,14.6z M36.8,9.2l-0.1,0.2l-0.4,0.1l-0.5,0.1l-0.3,0.1l-0.5,0.1l-0.1,0.1l0.4,0L35.4,10l-0.9,0.2  L34,10l-0.7,0l-0.2-0.1l-0.3-0.1L33,9.6l0.5,0l0.3-0.3l0.1,0l0.3,0.2l0.1-0.2l-0.2-0.1l0.4-0.1l0.5,0L35.2,9l0-0.2l0.2-0.2l0.5,0.1  l0.1,0l0.5-0.1l-0.3-0.1l-0.6-0.1l-0.1-0.1l0.1-0.1l0-0.1L35.7,8L36,8l0.2,0l0.4,0L37,7.9l0.2,0l0,0.1l0.4-0.1c0.4,0,0.8,0,1.3,0  l0,0l0.6,0c0.6,0.1,1.2,0.1,1.8,0.2l0.3,0.1l-0.1,0.1v0l-0.7,0.1l-0.6,0l-0.3,0.1l0.5,0c-0.4,0.1-0.9,0.2-1.3,0.2l-0.8,0.2l-0.5,0  l-0.2,0.1l-0.7,0l0.2,0.1L36.8,9.2z M50.6,13.8L49.3,14l-0.5,0l-0.5,0.2l-0.7,0.5l-1,0.3l-0.3,0c-0.4,0.1-0.9,0.1-1.3,0.2l-0.5,0.3  l-0.1,0.3l-0.3,0.3l-0.9,0.4l0.1,0.4c-0.2,0.3-0.5,0.6-0.7,0.9l-0.7,0l-0.6-0.4l-1,0l-0.4-0.3l-0.1-0.5L39.6,16l-0.1-0.3l0.1-0.4  l-0.4-0.5l0.3-0.3l-0.2-0.2l0.7-0.5l0.7-0.1l0.2-0.2l0.3-0.3c-0.3,0.1-0.5,0.1-0.8,0.2l-0.4,0.1l-0.4-0.2l0.2-0.3l0.3-0.2l0.3,0  l0.7,0.1c-0.2-0.1-0.5-0.3-0.7-0.4l-0.4,0l-0.2-0.1l0.6-0.4l-0.1-0.2c-0.1-0.2-0.1-0.5-0.2-0.7L40,10.9l0.1-0.2l-0.6-0.3  c-0.7-0.1-1.4-0.1-2.1-0.1l-0.2-0.1L37.1,10l0.8-0.1l0.6,0l-1-0.2l-0.4-0.2l0.2-0.1c0.7-0.1,1.5-0.1,2.2-0.2l0.2-0.1L39.2,9l0.4-0.1  l1.1-0.2l0.4,0l0.1-0.1c0.7-0.1,1.5-0.1,2.2,0l0.2,0.1l0.8-0.2l0.5,0.1l0.3,0l0.5,0.1l-0.5-0.2l0.1-0.1l1-0.2l0.9,0l0.4-0.1  c1,0,2,0,2.9,0c0.5,0.1,1.2,0.2,1.7,0.2l-0.5,0.1c-0.8,0-1.7,0-2.5,0.1l0.1,0.1l1,0l0.8,0.1l0.5-0.1l0.3,0.1l-0.3,0.2l0.7-0.1  c0.4,0,0.9-0.1,1.3-0.1l0.9,0l0.2,0.1l-1,0.3l-0.1,0.1l-0.9,0.1l0.7,0l-0.3,0.3l-0.2,0.2l0.1,0.4l0.5,0.2l-0.5,0l-0.5,0.1l0.7,0.2  l0.2,0.3l-0.4,0l0.6,0.3l-0.8,0l0.5,0.2l-0.1,0.1l-0.5,0.1l-0.5,0l0.5,0.3l0,0.2l-0.8-0.2l-0.2,0.1l0.5,0.1l0.6,0.2l0.2,0.3  l-0.7,0.1c-0.3-0.1-0.6-0.3-0.9-0.4l0.2,0.3l-0.5,0.2c0.6,0,1.1,0,1.7,0C52,13.4,51.3,13.6,50.6,13.8z M56.6,15.6  c-0.6,0.2-1.1,0.3-1.7,0.5c-0.7-0.1-1.3-0.1-2-0.2l0.4-0.2l-1-0.2l0.8-0.1l0-0.1l-1-0.1l0.3-0.3l0.7-0.1l0.8,0.3l0.6-0.3l0.6,0.1  l0.7-0.3l0.7,0l0,0.3l0.6,0.3L56.6,15.6z M85.7,23.1l0.2,0.4l-0.1,0.1l0.3,0.7l0.5,0.5l0.3,0.4c0.4,0.5,0.8,0.9,1.2,1.4l0.1,0  l0.1,0.1l-0.1,0.1c0.1,0.2,0.3,0.5,0.4,0.7l0,0.2c0.1,0.3,0.3,0.5,0.5,0.8l0.2,0.1l0.3,0.3l0.1,0c-0.7-1.3-1.5-2.7-2.4-3.9l-0.1,0  l-0.4-0.5l-0.2-0.1l-0.1-0.2l0.1,0l-0.3-0.4l0,0c-0.2-0.3-0.5-0.6-0.7-1l-0.1,0l0.1,0.3L85.7,23.1z M89.2,36.1l-0.3-0.5l-0.2,0  l-0.1-0.4l-0.1-0.2l-0.1-0.3l0-0.1l0,0.3l0.1,0.5l0,0.4l0,0.1c-0.1-0.2-0.3-0.3-0.4-0.5l-0.6-1l0,0.1l0.4,0.7c0.5,0.8,1,1.6,1.5,2.5  l0.5,0.7l0,0.1l0.1,0.5l0.5,0.6l0.1,0.1l0.3,0.7l0,0.1c0.1,0.5,0.3,1.1,0.5,1.6c0.1,0.1,0.2,0.3,0.4,0.4l0.3,0.8l0.2,0.7l0.2,0.3  l0.5,0.6c0.2,0.3,0.3,0.7,0.5,1l0.1,0.2l0.1,0.2l0,0.3l-0.1,0.2c0.1,0.1,0.1,0.2,0.2,0.3l0.1,0.3l0.1,0.3l0.1,0l0.2-0.3l0.2-0.2  l0.1-0.3l0.1-0.1l0-0.2c0,0,0.1-0.1,0.1-0.1l0.1-0.1l0.1-0.1l0-0.3l0,0c-0.1-0.8-0.1-1.6-0.3-2.4l-0.2,0.5l-0.1,0.6l-0.1,0.1l-0.1,0  l-0.1,0.4l-0.1,0.2L94,45.8l0,0.1l0,0.2l0,0.1l0,0.2l-0.1,0l-0.1,0.1l-0.2,0l-0.1-0.4l0-0.4l-0.1-0.2l-0.1-0.5l-0.1-0.3l0,0  l-0.1-0.3l0-0.2L93,43.7L93,43.4l-0.1-0.2l-0.1-0.3l-0.2-0.2l-0.2-0.6l-0.2-0.6L91.9,41l-0.1-0.1l-0.3-0.7l-0.2-0.5l-0.1-0.4  l-0.4-0.8l-0.2-0.3l-0.2-0.1l-0.2-0.4l0-0.2L90,37.3l-0.1-0.1l-0.3-0.5L89.2,36.1z"/><text x="0" y="115" font-size="5px" font-weight="bold" font-family="'Helvetica Neue', Helvetica, Arial-Unicode, Arial, Sans-serif">Created by Ted Grajeda</text><text x="0" y="120"  font-size="5px" font-weight="bold" font-family="'Helvetica Neue', Helvetica, Arial-Unicode, Arial, Sans-serif">from the Noun Project</text></svg>
